# xmcd
#
# Track frame offsets:
#	150
#	14160
#	23510
#	33400
#	46977
#	62297
#	74355
#	86022
#	100837
#	113055
#	127175
#	138292
#	150490
#	165135
#	178067
#	192052
#	205020
#	221842
#	233850
#	251352
#
# Disc length: 3540 seconds
#
# Revision: 3
# Processed by: cddbd v1.5.1PL0 Copyright (c) Steve Scherf et al.
# Submitted via: MusicWizard 7.0.2
#
DISCID=070dd214
DTITLE=Don Williams - Volume One And Two
DYEAR=1997
DGENRE=Country
TTITLE0=(Vol. I) Come Early Morning
TTITLE1=(Vol. I) Too Late To Turn Back Now
TTITLE2=(Vol. I) Endless Sleep
TTITLE3=(Vol. I) The Shelter Of Your Eyes
TTITLE4=(Vol. I) I Recall A Gypsy Woman
TTITLE5=(Vol. I) No Use Running
TTITLE6=(Vol. I) How Much Time Does It Take
TTITLE7=(Vol. I) My Woman's Love
TTITLE8=(Vol. I) Don't You Believe
TTITLE9=(Vol. I) Amanda
TTITLE10=(Vol. II) Wish I Was In Nashville
TTITLE11=(Vol. II) Your Sweet Love
TTITLE12=(Vol. II) She's In Love With A Rodeo Man
TTITLE13=(Vol. II) Atta Way To Go
TTITLE14=(Vol. II) We Should Be Together
TTITLE15=(Vol. II) Loving You So Long Now
TTITLE16=(Vol. II) Oh Misery
TTITLE17=(Vol. II) Miller's Cave
TTITLE18=(Vol. II) I Don't Think About Her No More
TTITLE19=(Vol. II) Down The Road I Go
EXTD=
EXTT0=
EXTT1=
EXTT2=
EXTT3=
EXTT4=
EXTT5=
EXTT6=
EXTT7=
EXTT8=
EXTT9=
EXTT10=
EXTT11=
EXTT12=
EXTT13=
EXTT14=
EXTT15=
EXTT16=
EXTT17=
EXTT18=
EXTT19=
PLAYORDER=
